<?xml version="1.0" encoding="UTF-8"?>
<svg xmlns="http://www.w3.org/2000/svg" width="627" height="911" viewBox="0 0 627 911">
  <g transform="translate(0,0)">
    <path d="M 425.00,793.00 L 424.00,906.00 L 495.00,907.00 L 495.00,885.00 L 449.00,884.00 L 450.00,861.00 L 489.00,860.00 L 488.00,840.00 L 449.00,839.00 L 449.00,817.00 L 495.00,816.00 L 496.00,794.00 Z M 286.00,794.00 L 287.00,907.00 L 309.00,906.00 L 310.00,835.00 L 344.00,900.00 L 379.00,834.00 L 380.00,906.00 L 402.00,906.00 L 401.00,793.00 L 373.00,794.00 L 345.00,855.00 L 316.00,794.00 Z M 204.00,793.00 L 162.00,906.00 L 188.00,907.00 L 197.00,885.00 L 238.00,885.00 L 247.00,907.00 L 271.00,907.00 L 232.00,795.00 Z M 217.00,826.00 L 219.00,827.00 L 230.00,859.00 L 229.00,863.00 L 204.00,862.00 Z M 543.00,792.00 L 515.00,808.00 L 511.00,836.00 L 523.00,851.00 L 566.00,865.00 L 571.00,879.00 L 557.00,888.00 L 539.00,885.00 L 530.00,871.00 L 509.00,873.00 L 508.00,879.00 L 524.00,903.00 L 563.00,909.00 L 591.00,892.00 L 595.00,865.00 L 581.00,847.00 L 539.00,834.00 L 534.00,822.00 L 547.00,813.00 L 561.00,815.00 L 570.00,828.00 L 591.00,827.00 L 592.00,819.00 L 577.00,798.00 Z M 89.00,792.00 L 67.00,800.00 L 52.00,814.00 L 42.00,836.00 L 41.00,860.00 L 48.00,881.00 L 67.00,901.00 L 111.00,909.00 L 146.00,886.00 L 154.00,847.00 L 99.00,846.00 L 99.00,865.00 L 128.00,867.00 L 115.00,884.00 L 91.00,886.00 L 69.00,867.00 L 66.00,845.00 L 71.00,830.00 L 93.00,815.00 L 114.00,817.00 L 128.00,832.00 L 152.00,829.00 L 130.00,799.00 Z M 392.00,654.00 L 391.00,768.00 L 415.00,768.00 L 416.00,697.00 L 461.00,768.00 L 487.00,769.00 L 488.00,655.00 L 464.00,655.00 L 463.00,726.00 L 420.00,658.00 Z M 344.00,654.00 L 342.00,656.00 L 342.00,768.00 L 366.00,769.00 L 367.00,655.00 Z M 224.00,654.00 L 222.00,767.00 L 248.00,768.00 L 249.00,722.00 L 292.00,722.00 L 293.00,768.00 L 317.00,769.00 L 318.00,656.00 L 293.00,655.00 L 292.00,698.00 L 249.00,698.00 L 248.00,655.00 Z M 41.00,654.00 L 0.00,768.00 L 24.00,769.00 L 33.00,747.00 L 75.00,747.00 L 85.00,769.00 L 108.00,769.00 L 69.00,656.00 Z M 54.00,686.00 L 56.00,688.00 L 67.00,719.00 L 67.00,725.00 L 40.00,724.00 L 52.00,688.00 Z M 550.00,654.00 L 530.00,663.00 L 514.00,680.00 L 506.00,701.00 L 508.00,732.00 L 517.00,749.00 L 542.00,768.00 L 555.00,771.00 L 584.00,769.00 L 607.00,756.00 L 620.00,739.00 L 626.00,718.00 L 624.00,696.00 L 613.00,674.00 L 596.00,660.00 L 573.00,653.00 Z M 555.00,677.00 L 567.00,676.00 L 582.00,680.00 L 593.00,689.00 L 599.00,701.00 L 600.00,719.00 L 597.00,729.00 L 590.00,739.00 L 576.00,747.00 L 559.00,748.00 L 547.00,744.00 L 537.00,735.00 L 532.00,724.00 L 531.00,705.00 L 534.00,695.00 L 543.00,683.00 Z M 148.00,654.00 L 124.00,671.00 L 121.00,698.00 L 134.00,713.00 L 179.00,728.00 L 182.00,739.00 L 175.00,747.00 L 159.00,749.00 L 148.00,745.00 L 141.00,732.00 L 118.00,734.00 L 119.00,746.00 L 141.00,768.00 L 181.00,769.00 L 204.00,750.00 L 205.00,724.00 L 192.00,709.00 L 149.00,695.00 L 145.00,683.00 L 152.00,676.00 L 167.00,675.00 L 181.00,689.00 L 202.00,688.00 L 203.00,680.00 L 196.00,666.00 L 182.00,656.00 Z M 218.00,27.00 L 147.00,119.00 L 122.00,330.00 L 140.00,368.00 L 132.00,284.00 L 173.00,395.00 L 169.00,325.00 L 196.00,383.00 L 236.00,391.00 L 228.00,351.00 L 252.00,400.00 L 196.00,407.00 L 113.00,499.00 L 77.00,625.00 L 571.00,626.00 L 508.00,451.00 L 454.00,390.00 L 382.00,387.00 L 389.00,360.00 L 471.00,352.00 L 501.00,307.00 L 491.00,349.00 L 515.00,330.00 L 525.00,241.00 L 531.00,325.00 L 548.00,303.00 L 476.00,89.00 L 366.00,5.00 Z M 439.00,523.00 L 440.00,522.00 L 441.00,523.00 L 440.00,524.00 Z M 209.00,514.00 L 275.00,553.00 L 325.00,574.00 L 363.00,566.00 L 438.00,526.00 L 376.00,569.00 L 347.00,582.00 L 325.00,584.00 L 269.00,558.00 Z M 208.00,513.00 L 209.00,511.00 L 211.00,512.00 L 209.00,514.00 Z M 205.00,510.00 L 206.00,509.00 L 207.00,510.00 L 206.00,511.00 Z M 369.00,379.00 L 371.00,405.00 L 313.00,416.00 L 265.00,408.00 L 267.00,375.00 L 298.00,382.00 L 293.00,374.00 L 294.00,370.00 L 319.00,383.00 L 322.00,378.00 L 342.00,385.00 L 358.00,369.00 L 357.00,382.00 Z M 159.00,224.00 L 168.00,231.00 L 166.00,265.00 L 164.00,270.00 L 159.00,261.00 L 156.00,243.00 L 157.00,227.00 Z M 224.00,167.00 L 224.00,170.00 L 222.00,172.00 L 171.00,185.00 L 165.00,184.00 L 165.00,181.00 L 172.00,177.00 L 220.00,165.00 Z M 223.00,132.00 L 223.00,136.00 L 220.00,138.00 L 168.00,152.00 L 164.00,152.00 L 162.00,150.00 L 162.00,147.00 L 165.00,145.00 L 219.00,131.00 Z" fill="#000000" fill-rule="evenodd" />
  </g>
</svg>
