<?xml version="1.0" encoding="UTF-8"?>
<svg version="1.1" xmlns="http://www.w3.org/2000/svg" width="256" height="256">
<path d="M0 0 C84.48 0 168.96 0 256 0 C256 84.48 256 168.96 256 256 C171.52 256 87.04 256 0 256 C0 171.52 0 87.04 0 0 Z " fill="#020203" transform="translate(0,0)"/>
<path d="M0 0 C7.26 0 14.52 0 22 0 C22 1.98 22 3.96 22 6 C22.37769531 5.566875 22.75539062 5.13375 23.14453125 4.6875 C26.75456924 1.0351899 29.35800287 -0.46858069 34.5625 -0.625 C39.41577254 -0.58273638 42.45162753 0.64273347 46 4 C46.73226487 7.11391771 46.56857817 10.07333257 46.375 13.25 C46.33439453 14.51070312 46.33439453 14.51070312 46.29296875 15.796875 C46.22244109 17.86568634 46.11482367 19.93317393 46 22 C43.36 22 40.72 22 38 22 C38 17.71 38 13.42 38 9 C36.35 9 34.7 9 33 9 C33.33 15.6 33.66 22.2 34 29 C35.794375 29.804375 37.58875 30.60875 39.4375 31.4375 C44.875 33.875 44.875 33.875 46 35 C46.30967946 39.26332504 46.27845976 43.53931502 46.3125 47.8125 C46.34150391 49.01455078 46.37050781 50.21660156 46.40039062 51.45507812 C46.40876953 52.61072266 46.41714844 53.76636719 46.42578125 54.95703125 C46.44036377 56.01897705 46.45494629 57.08092285 46.4699707 58.17504883 C45.88276891 61.70466544 44.82220091 62.86219859 42 65 C38.65234375 65.49609375 38.65234375 65.49609375 34.9375 65.4375 C33.70902344 65.43621094 32.48054688 65.43492187 31.21484375 65.43359375 C28 65 28 65 26.06640625 63.59765625 C25 62 25 62 25 60 C24.01 60 23.02 60 22 60 C21.67 61.65 21.34 63.3 21 65 C14.4 65 7.8 65 1 65 C0.67 43.55 0.34 22.1 0 0 Z " fill="#121116" transform="translate(152,138)"/>
<path d="M0 0 C4.95 0 9.9 0 15 0 C18.38297872 22.91489362 18.38297872 22.91489362 19 32 C19.12117188 30.94683594 19.24234375 29.89367187 19.3671875 28.80859375 C20.48177839 19.19104234 21.69599277 9.59376748 23 0 C27.62 0 32.24 0 37 0 C37 21.12 37 42.24 37 64 C34.36 64 31.72 64 29 64 C28.67 49.15 28.34 34.3 28 19 C26.02 30.88 24.04 42.76 22 55 C19.69 55 17.38 55 15 55 C14.91959473 54.4016333 14.83918945 53.8032666 14.75634766 53.18676758 C14.38048921 50.39517416 14.00274781 47.60383836 13.625 44.8125 C13.49867187 43.87212891 13.37234375 42.93175781 13.2421875 41.96289062 C12.24719167 34.62479635 11.12650982 27.32231386 10 20 C9.67 34.52 9.34 49.04 9 64 C6.36 64 3.72 64 1 64 C1 45.52 1 27.04 1 8 C0.34 8 -0.32 8 -1 8 C-0.67 5.36 -0.34 2.72 0 0 Z " fill="#FAFAFA" transform="translate(111,139)"/>
<path d="M0 0 C1.19625 -0.00128906 2.3925 -0.00257812 3.625 -0.00390625 C7.87217911 0.70887265 9.19104004 1.25566028 12 4.5625 C12.77767957 8.70747936 12.69988326 12.8206498 12.6640625 17.02734375 C12.66884613 18.25280411 12.67362976 19.47826447 12.67855835 20.74085999 C12.68196077 23.33238 12.67273473 25.92394273 12.65185547 28.51538086 C12.62512177 32.48193199 12.65158431 36.445647 12.68359375 40.41210938 C12.68028927 42.92969375 12.67388225 45.44727636 12.6640625 47.96484375 C12.67418365 49.15142075 12.68430481 50.33799774 12.69473267 51.56053162 C12.57814254 59.75599813 12.57814254 59.75599813 9.67163086 63.81054688 C6.23826856 66.06201428 4.02177534 66.19925955 -0.0625 66.125 C-1.87427734 66.12693359 -1.87427734 66.12693359 -3.72265625 66.12890625 C-7.51313364 65.47381779 -8.67018639 64.5515894 -11 61.5625 C-12.25765047 59.04719907 -12.15434366 57.27317768 -12.19287109 54.45776367 C-12.20893402 53.39293259 -12.22499695 52.3281015 -12.24154663 51.23100281 C-12.28593193 46.35900454 -12.32705853 41.48714331 -12.35009766 36.61499023 C-12.36666521 34.04360916 -12.39396529 31.47227428 -12.43212891 28.90112305 C-12.48682553 25.19816133 -12.50876159 21.49627975 -12.5234375 17.79296875 C-12.54610687 16.6438652 -12.56877625 15.49476166 -12.59213257 14.31083679 C-12.57102793 6.35569443 -12.57102793 6.35569443 -9.67822266 2.33740234 C-6.25503558 0.06879978 -4.0851575 -0.07483586 0 0 Z " fill="#F3F2F4" transform="translate(190,59.4375)"/>
<path d="M0 0 C3.3 0 6.6 0 10 0 C12.97 11.55 15.94 23.1 19 35 C19.33 23.78 19.66 12.56 20 1 C22.64 1 25.28 1 28 1 C28 22.12 28 43.24 28 65 C25.03 65 22.06 65 19 65 C18.68546875 63.6696875 18.3709375 62.339375 18.046875 60.96875 C17.61463417 59.14582128 17.18233954 57.32290531 16.75 55.5 C16.54503906 54.63246094 16.34007812 53.76492187 16.12890625 52.87109375 C14.15607306 44.56128123 12.07199203 36.28796813 10 28 C9.67 39.88 9.34 51.76 9 64 C6.36 64 3.72 64 1 64 C1 45.85 1 27.7 1 9 C0.34 9 -0.32 9 -1 9 C-0.67 6.03 -0.34 3.06 0 0 Z " fill="#F9F8F9" transform="translate(146,60)"/>
<path d="M0 0 C5.94 0 11.88 0 18 0 C18.65567878 7.29338018 19.30832327 14.58701699 19.95575714 21.88113403 C20.25656473 25.26874502 20.55865561 28.65623097 20.86376953 32.04345703 C21.21517988 35.94529287 21.56084629 39.84762767 21.90625 43.75 C22.0156189 44.95551514 22.12498779 46.16103027 22.2376709 47.40307617 C22.75480432 53.2952756 23.12747546 59.08513873 23 65 C20.03 65 17.06 65 14 65 C14 61.37 14 57.74 14 54 C11.36 54 8.72 54 6 54 C6.020625 55.258125 6.04125 56.51625 6.0625 57.8125 C6.10886083 60.64051087 5.91692961 62.24921116 5 65 C2.03 65 -0.94 65 -4 65 C-3.54506409 54.30116239 -2.57434003 43.70926559 -1.4375 33.0625 C-0.26263668 21.94488879 0.29402432 11.17292434 0 0 Z " fill="#F1F0F2" transform="translate(54,60)"/>
<path d="M0 0 C5.94 0 11.88 0 18 0 C18.19916016 2.76310547 18.19916016 2.76310547 18.40234375 5.58203125 C18.58052761 7.99220241 18.75892405 10.40235786 18.9375 12.8125 C19.02451172 14.02744141 19.11152344 15.24238281 19.20117188 16.49414062 C19.28818359 17.65751953 19.37519531 18.82089844 19.46484375 20.01953125 C19.543396 21.09307861 19.62194824 22.16662598 19.70288086 23.27270508 C19.91248862 26.09017158 19.91248862 26.09017158 21 29 C21.477301 32.63289989 21.7527489 36.28686199 22.0625 39.9375 C22.15192871 40.97334229 22.24135742 42.00918457 22.33349609 43.07641602 C22.91007232 50.07385495 23.27183533 56.97758725 23 64 C20.03 64 17.06 64 14 64 C14 60.37 14 56.74 14 53 C11.36 53 8.72 53 6 53 C6 56.63 6 60.26 6 64 C3.03 64 0.06 64 -3 64 C-3.22320512 55.27949978 -2.60660332 46.73830071 -1.71743774 38.07199097 C-0.41945901 25.33030306 0.32318944 12.81984773 0 0 Z " fill="#F5F4F5" transform="translate(85,139)"/>
<path d="M0 0 C3.3 0 6.6 0 10 0 C10 9.24 10 18.48 10 28 C11.65 28 13.3 28 15 28 C15 18.76 15 9.52 15 0 C17.97 0 20.94 0 24 0 C24 21.45 24 42.9 24 65 C21.03 65 18.06 65 15 65 C15 55.76 15 46.52 15 37 C13.35 37 11.7 37 10 37 C10 46.24 10 55.48 10 65 C7.03 65 4.06 65 1 65 C0.67 43.55 0.34 22.1 0 0 Z " fill="#F1F0F2" transform="translate(104,60)"/>
<path d="M0 0 C1.29808594 -0.0103125 2.59617187 -0.020625 3.93359375 -0.03125 C8.2149975 0.5955217 9.86125172 1.09766439 12.5625 4.5 C13.15720413 7.77485257 13.0341002 10.93582036 12.875 14.25 C12.85244141 15.13816406 12.82988281 16.02632812 12.80664062 16.94140625 C12.7478524 19.12832829 12.65817398 21.31438097 12.5625 23.5 C9.5925 23.5 6.6225 23.5 3.5625 23.5 C3.5625 18.88 3.5625 14.26 3.5625 9.5 C1.5825 9.5 -0.3975 9.5 -2.4375 9.5 C-2.4375 24.68 -2.4375 39.86 -2.4375 55.5 C-0.4575 55.5 1.5225 55.5 3.5625 55.5 C3.5625 49.23 3.5625 42.96 3.5625 36.5 C2.5725 36.5 1.5825 36.5 0.5625 36.5 C0.5625 33.53 0.5625 30.56 0.5625 27.5 C4.5225 27.5 8.4825 27.5 12.5625 27.5 C12.6369013 31.82328804 12.69121968 36.14623255 12.72729492 40.4699707 C12.74234066 41.93943782 12.76278238 43.40886034 12.78881836 44.87817383 C12.82538955 46.9957177 12.84226801 49.11266565 12.85546875 51.23046875 C12.8711792 52.50301514 12.88688965 53.77556152 12.90307617 55.08666992 C12.53833116 58.74222549 11.7721128 60.60074358 9.5625 63.5 C6.55949703 65.00150148 3.48025628 64.80640091 0.1875 64.875 C-0.82183594 64.93107422 -0.82183594 64.93107422 -1.8515625 64.98828125 C-5.14460036 65.04662247 -7.03630278 64.82196769 -9.62939453 62.7409668 C-12.44138704 57.70056704 -12.00822673 52.7996299 -11.96875 47.12109375 C-11.9725769 45.91687271 -11.97640381 44.71265167 -11.98034668 43.47193909 C-11.98306582 40.92928225 -11.97570462 38.38659745 -11.95898438 35.84399414 C-11.93755829 31.948098 -11.95879787 28.05404227 -11.984375 24.15820312 C-11.98173209 21.68749592 -11.97660789 19.21678987 -11.96875 16.74609375 C-11.97684692 15.5793663 -11.98494385 14.41263885 -11.99328613 13.21055603 C-11.98067749 12.12585526 -11.96806885 11.04115448 -11.95507812 9.92358398 C-11.95189575 8.97047836 -11.94871338 8.01737274 -11.94543457 7.03538513 C-10.62366098 0.43767491 -5.93584315 -0.04706318 0 0 Z " fill="#F1F0F2" transform="translate(66.4375,138.5)"/>
<path d="M0 0 C1.66869141 -0.03287109 1.66869141 -0.03287109 3.37109375 -0.06640625 C7.653878 0.77756959 9.06558868 1.99284159 11.5625 5.5625 C12.13628921 8.53425752 12.03910995 11.36295115 11.875 14.375 C11.85244141 15.16326172 11.82988281 15.95152344 11.80664062 16.76367188 C11.74804161 18.69743929 11.65836827 20.63022167 11.5625 22.5625 C8.5925 22.5625 5.6225 22.5625 2.5625 22.5625 C2.5625 17.9425 2.5625 13.3225 2.5625 8.5625 C1.2425 8.5625 -0.0775 8.5625 -1.4375 8.5625 C-1.4375 15.4925 -1.4375 22.4225 -1.4375 29.5625 C1.5325 30.5525 4.5025 31.5425 7.5625 32.5625 C10.09179688 33.91455078 10.09179688 33.91455078 11.5625 35.5625 C12.08007812 38.02685547 12.08007812 38.02685547 12.09375 40.9296875 C12.09890625 41.98027344 12.1040625 43.03085938 12.109375 44.11328125 C12.09390625 45.21027344 12.0784375 46.30726562 12.0625 47.4375 C12.07796875 48.52675781 12.0934375 49.61601563 12.109375 50.73828125 C12.07033969 58.71124413 12.07033969 58.71124413 9.65625 62.7578125 C6.29383465 65.65601379 4.07599086 65.79801252 -0.3125 65.9375 C-1.36179687 65.98648438 -2.41109375 66.03546875 -3.4921875 66.0859375 C-6.4375 65.5625 -6.4375 65.5625 -8.8046875 63.49609375 C-10.8467523 59.82721656 -10.84346322 57.42201601 -10.6875 53.25 C-10.65140625 51.99574219 -10.6153125 50.74148437 -10.578125 49.44921875 C-10.53171875 48.49660156 -10.4853125 47.54398438 -10.4375 46.5625 C-7.4675 46.5625 -4.4975 46.5625 -1.4375 46.5625 C-1.4375 50.1925 -1.4375 53.8225 -1.4375 57.5625 C-0.1175 57.5625 1.2025 57.5625 2.5625 57.5625 C2.5625 51.6225 2.5625 45.6825 2.5625 39.5625 C0.9125 39.2325 -0.7375 38.9025 -2.4375 38.5625 C-6.30713964 36.89324369 -8.07210091 36.11059863 -10.4375 32.5625 C-10.91002607 27.93134745 -10.80785898 23.27762479 -10.8125 18.625 C-10.83699219 17.33658203 -10.86148438 16.04816406 -10.88671875 14.72070312 C-10.89058594 13.48384766 -10.89445312 12.24699219 -10.8984375 10.97265625 C-10.90665527 9.83965088 -10.91487305 8.70664551 -10.92333984 7.53930664 C-9.88103673 1.15297402 -5.92524244 -0.00684999 0 0 Z " fill="#F2F1F2" transform="translate(89.4375,59.4375)"/>
<path d="M0 0 C0.90621094 -0.00128906 1.81242188 -0.00257813 2.74609375 -0.00390625 C6.63872798 0.77893975 8.66856855 1.81220894 11.5625 4.5625 C12.29397985 7.67666512 12.13108429 10.63573222 11.9375 13.8125 C11.91042969 14.65296875 11.88335937 15.4934375 11.85546875 16.359375 C11.78494109 18.42818634 11.67732367 20.49567393 11.5625 22.5625 C8.9225 22.5625 6.2825 22.5625 3.5625 22.5625 C3.5625 18.2725 3.5625 13.9825 3.5625 9.5625 C1.9125 9.5625 0.2625 9.5625 -1.4375 9.5625 C-1.1075 16.1625 -0.7775 22.7625 -0.4375 29.5625 C2.2540625 30.7690625 2.2540625 30.7690625 5 32 C10.4375 34.4375 10.4375 34.4375 11.5625 35.5625 C11.87217946 39.82582504 11.84095976 44.10181502 11.875 48.375 C11.90400391 49.57705078 11.93300781 50.77910156 11.96289062 52.01757812 C11.97126953 53.17322266 11.97964844 54.32886719 11.98828125 55.51953125 C12.00286377 56.58147705 12.01744629 57.64342285 12.0324707 58.73754883 C11.4453202 62.26685714 10.38010015 63.4203541 7.5625 65.5625 C4.25 66.12890625 4.25 66.12890625 0.5625 66.125 C-0.654375 66.14691406 -1.87125 66.16882813 -3.125 66.19140625 C-6.4375 65.5625 -6.4375 65.5625 -8.859375 63.453125 C-10.77578422 59.94287048 -10.84802956 57.72310654 -10.6875 53.75 C-10.65140625 52.58855469 -10.6153125 51.42710937 -10.578125 50.23046875 C-10.50851563 48.90982422 -10.50851563 48.90982422 -10.4375 47.5625 C-7.4675 47.5625 -4.4975 47.5625 -1.4375 47.5625 C-1.4375 50.8625 -1.4375 54.1625 -1.4375 57.5625 C0.2125 57.5625 1.8625 57.5625 3.5625 57.5625 C3.5625 51.6225 3.5625 45.6825 3.5625 39.5625 C1.2525 39.2325 -1.0575 38.9025 -3.4375 38.5625 C-9.04788961 35.34172078 -9.04788961 35.34172078 -10.4375 32.5625 C-10.76292291 28.13139335 -10.76205369 23.69156855 -10.8125 19.25 C-10.84988281 18.01314453 -10.88726562 16.77628906 -10.92578125 15.50195312 C-11.0139139 6.43897909 -11.0139139 6.43897909 -8.25390625 2.2421875 C-5.18526732 0.41206997 -3.54683291 -0.08552647 0 0 Z " fill="#F5F4F6" transform="translate(186.4375,137.4375)"/>
<path d="M0 0 C6.93 0 13.86 0 21 0 C21 2.64 21 5.28 21 8 C17.04 8 13.08 8 9 8 C9 14.6 9 21.2 9 28 C12.3 28 15.6 28 19 28 C19 30.64 19 33.28 19 36 C15.7 36 12.4 36 9 36 C9 42.6 9 49.2 9 56 C12.96 56 16.92 56 21 56 C21 58.64 21 61.28 21 64 C14.4 64 7.8 64 1 64 C0.67 42.88 0.34 21.76 0 0 Z " fill="#FCFCFC" transform="translate(152,139)"/>
<path d="M0 0 C3.3 0 6.6 0 10 0 C10 21.45 10 42.9 10 65 C7.03 65 4.06 65 1 65 C0.67 43.55 0.34 22.1 0 0 Z " fill="#EEEDEF" transform="translate(132,60)"/>
<path d="M0 0 C1.98 0 3.96 0 6 0 C6 16.17 6 32.34 6 49 C4.02 49 2.04 49 0 49 C0 32.83 0 16.66 0 0 Z " fill="#0D0B12" transform="translate(187,68)"/>
<path d="M0 0 C0.33 0 0.66 0 1 0 C1 18.48 1 36.96 1 56 C3.64 56 6.28 56 9 56 C9 56.33 9 56.66 9 57 C1.74 57 -5.52 57 -13 57 C-13 53.37 -13 49.74 -13 46 C-14.98 46 -16.96 46 -19 46 C-19 49.63 -19 53.26 -19 57 C-22.3 57 -25.6 57 -29 57 C-29 56.67 -29 56.34 -29 56 C-26.03 56 -23.06 56 -20 56 C-20 52.37 -20 48.74 -20 45 C-17.36 45 -14.72 45 -12 45 C-12 48.63 -12 52.26 -12 56 C-9.03 56 -6.06 56 -3 56 C-3 52.04 -3 48.08 -3 44 C-2.67 44 -2.34 44 -2 44 C-1.67 46.97 -1.34 49.94 -1 53 C-0.67 35.51 -0.34 18.02 0 0 Z " fill="#4C4656" transform="translate(111,147)"/>
<path d="M0 0 C0.33 0 0.66 0 1 0 C1 5.94 1 11.88 1 18 C-0.32 18 -1.64 18 -3 18 C-3 14.37 -3 10.74 -3 7 C-5.97 7 -8.94 7 -12 7 C-11.90460938 8.10859375 -11.80921875 9.2171875 -11.7109375 10.359375 C-11.5983609 11.82287083 -11.48641476 13.28641526 -11.375 14.75 C-11.31054688 15.47960937 -11.24609375 16.20921875 -11.1796875 16.9609375 C-10.86786987 21.24842986 -11.01929427 23.03858853 -13 27 C-16.63 27 -20.26 27 -24 27 C-24 23.04 -24 19.08 -24 15 C-23.67 15 -23.34 15 -23 15 C-23 18.63 -23 22.26 -23 26 C-20.03 26 -17.06 26 -14 26 C-14.165 24.88625 -14.33 23.7725 -14.5 22.625 C-15.09440124 17.80087396 -15.53125516 12.84432667 -15 8 C-13 6 -13 6 -10.3984375 5.8046875 C-9.40070313 5.82789062 -8.40296875 5.85109375 -7.375 5.875 C-5.87066406 5.90207031 -5.87066406 5.90207031 -4.3359375 5.9296875 C-3.56507812 5.95289062 -2.79421875 5.97609375 -2 6 C-2 9.3 -2 12.6 -2 16 C-1.34 16 -0.68 16 0 16 C0 10.72 0 5.44 0 0 Z " fill="#231D2D" transform="translate(91,99)"/>
<path d="M0 0 C0.66 0 1.32 0 2 0 C2.66 9.57 3.32 19.14 4 29 C2.02 29 0.04 29 -2 29 C-1.34 19.43 -0.68 9.86 0 0 Z " fill="#2D2835" transform="translate(94,155)"/>
<path d="M0 0 C0.33 0 0.66 0 1 0 C3.38297872 19.34042553 3.38297872 19.34042553 3 29 C1.35 29 -0.3 29 -2 29 C-2.38767027 19.22209426 -1.1929947 9.68243016 0 0 Z " fill="#1E1A24" transform="translate(63,76)"/>
<path d="M0 0 C0.33 0 0.66 0 1 0 C1 2.97 1 5.94 1 9 C0.34 9 -0.32 9 -1 9 C-1 27.48 -1 45.96 -1 65 C-1.33 65 -1.66 65 -2 65 C-2.04639619 57.26335608 -2.0819062 49.52672664 -2.10362434 41.78997517 C-2.11404941 38.19725432 -2.12818516 34.60462885 -2.15087891 31.01196289 C-2.17265303 27.54306797 -2.18457823 24.07426463 -2.18975449 20.60530663 C-2.19523334 18.64165092 -2.21083903 16.67803192 -2.22659302 14.71443176 C-2.22674408 13.5135643 -2.22689514 12.31269684 -2.22705078 11.07543945 C-2.231492 10.02064896 -2.23593323 8.96585846 -2.24050903 7.87910461 C-1.99075503 4.88932958 -1.25879106 2.70741591 0 0 Z " fill="#0E0A17" transform="translate(151,139)"/>
<path d="M0 0 C0.33 0 0.66 0 1 0 C1.33 8.25 1.66 16.5 2 25 C2.33 25 2.66 25 3 25 C3 28.96 3 32.92 3 37 C2.34 35.68 1.68 34.36 1 33 C0.34 33 -0.32 33 -1 33 C-0.67 22.11 -0.34 11.22 0 0 Z " fill="#1C1328" transform="translate(79,166)"/>
<path d="M0 0 C0.33 0 0.66 0 1 0 C1.89604368 6.04829486 2.11269443 11.8894576 2 18 C1.01 17.67 0.02 17.34 -1 17 C-0.67 11.39 -0.34 5.78 0 0 Z " fill="#2D2737" transform="translate(63,76)"/>
<path d="M0 0 C1.28132812 0.00902344 2.56265625 0.01804688 3.8828125 0.02734375 C5.36394531 0.04474609 5.36394531 0.04474609 6.875 0.0625 C6.875 0.3925 6.875 0.7225 6.875 1.0625 C5.51955078 1.11857422 5.51955078 1.11857422 4.13671875 1.17578125 C2.95722656 1.24152344 1.77773437 1.30726562 0.5625 1.375 C-0.60925781 1.43300781 -1.78101563 1.49101563 -2.98828125 1.55078125 C-6.31176139 2.09296792 -7.05674732 2.56587136 -9.125 5.0625 C-9.785 5.0625 -10.445 5.0625 -11.125 5.0625 C-8.55821408 -0.6210974 -6.01441462 -0.0546765 0 0 Z " fill="#D5D2D8" transform="translate(190.125,59.9375)"/>
<path d="M0 0 C0.33 0 0.66 0 1 0 C1 3.96 1 7.92 1 12 C0.34 10.68 -0.32 9.36 -1 8 C-1.66 8 -2.32 8 -3 8 C-2.67 7.01 -2.34 6.02 -2 5 C-1.67 5 -1.34 5 -1 5 C-0.67 3.35 -0.34 1.7 0 0 Z " fill="#221D2C" transform="translate(81,191)"/>
</svg>
